<svg width="52" height="52" viewBox="0 0 52 52" fill="none" xmlns="http://www.w3.org/2000/svg">
<path d="M26.0024 0C18.9412 0 18.055 0.0308758 15.2817 0.157085C12.5137 0.283837 10.6244 0.722049 8.97118 1.36501C7.26112 2.0291 5.81052 2.91745 4.36534 4.36317C2.91907 5.80835 2.03073 7.25895 1.36447 8.96847C0.719882 10.6222 0.281128 12.5121 0.156543 15.279C0.0325001 18.0523 0 18.939 0 26.0003C0 33.0615 0.0314175 33.945 0.157085 36.7183C0.284378 39.4863 0.722591 41.3756 1.36501 43.0288C2.02965 44.7389 2.91799 46.1895 4.36371 47.6347C5.80835 49.0809 7.25895 49.9714 8.96793 50.6355C10.6222 51.2785 12.5121 51.7167 15.2795 51.8435C18.0529 51.9697 18.9385 52.0005 25.9992 52.0005C33.061 52.0005 33.9444 51.9697 36.7178 51.8435C39.4857 51.7167 41.3773 51.2785 43.0315 50.6355C44.741 49.9714 46.1895 49.0809 47.6341 47.6347C49.0804 46.1895 49.9687 44.7389 50.635 43.0294C51.2742 41.3756 51.7129 39.4857 51.8429 36.7189C51.9675 33.9455 52 33.0615 52 26.0003C52 18.939 51.9675 18.0529 51.8429 15.2795C51.7129 12.5115 51.2742 10.6222 50.635 8.96901C49.9687 7.25895 49.0804 5.80835 47.6341 4.36317C46.1879 2.91691 44.7416 2.02856 43.0299 1.36501C41.3724 0.722049 39.482 0.283837 36.714 0.157085C33.9406 0.0308758 33.0577 0 25.9943 0H26.0024ZM23.67 4.68547C24.3623 4.68438 25.1347 4.68547 26.0024 4.68547C32.9445 4.68547 33.7673 4.71038 36.5087 4.83497C39.0437 4.95089 40.4196 5.37447 41.3361 5.73035C42.5494 6.20161 43.4145 6.76494 44.324 7.67495C45.234 8.58496 45.7973 9.45164 46.2696 10.665C46.6255 11.5804 47.0497 12.9563 47.165 15.4913C47.2896 18.2321 47.3167 19.0555 47.3167 25.9943C47.3167 32.9331 47.2896 33.7565 47.165 36.4973C47.0491 39.0324 46.6255 40.4082 46.2696 41.3236C45.7984 42.537 45.234 43.401 44.324 44.3104C43.414 45.2204 42.55 45.7838 41.3361 46.255C40.4207 46.6125 39.0437 47.035 36.5087 47.1509C33.7679 47.2755 32.9445 47.3026 26.0024 47.3026C19.0598 47.3026 18.237 47.2755 15.4962 47.1509C12.9611 47.0339 11.5853 46.6104 10.6682 46.2545C9.45489 45.7832 8.58821 45.2199 7.6782 44.3099C6.76819 43.3999 6.20486 42.5354 5.73252 41.3215C5.37664 40.406 4.95251 39.0302 4.83713 36.4952C4.71255 33.7543 4.68763 32.931 4.68763 25.9878C4.68763 19.0447 4.71255 18.2256 4.83713 15.4848C4.95305 12.9498 5.37664 11.5739 5.73252 10.6574C6.20377 9.44406 6.76819 8.57738 7.6782 7.66737C8.58821 6.75736 9.45489 6.19402 10.6682 5.72168C11.5847 5.36418 12.9611 4.94168 15.4962 4.82522C17.8947 4.71688 18.8242 4.68438 23.67 4.67897V4.68547ZM39.8812 9.00259C38.1586 9.00259 36.7611 10.3985 36.7611 12.1215C36.7611 13.8441 38.1586 15.2416 39.8812 15.2416C41.6037 15.2416 43.0012 13.8441 43.0012 12.1215C43.0012 10.399 41.6037 9.00151 39.8812 9.00151V9.00259ZM26.0024 12.648C18.6287 12.648 12.6502 18.6265 12.6502 26.0003C12.6502 33.3741 18.6287 39.3498 26.0024 39.3498C33.3762 39.3498 39.3525 33.3741 39.3525 26.0003C39.3525 18.6265 33.3757 12.648 26.0019 12.648H26.0024ZM26.0024 17.3335C30.7887 17.3335 34.6692 21.2135 34.6692 26.0003C34.6692 30.7865 30.7887 34.667 26.0024 34.667C21.2157 34.667 17.3357 30.7865 17.3357 26.0003C17.3357 21.2135 21.2157 17.3335 26.0024 17.3335V17.3335Z" fill="white"/>
</svg>
