<svg width="52" height="52" viewBox="0 0 52 52" fill="none" xmlns="http://www.w3.org/2000/svg">
<path d="M25.9998 0C40.3369 0 52 9.46506 52 21.0993C52 25.7555 50.1952 29.9488 46.4271 34.0807C40.9724 40.3593 28.775 48.0066 25.9998 49.1759C23.3029 50.3126 23.6144 48.5362 23.7378 47.8322C23.7413 47.812 23.7447 47.7927 23.7479 47.7744C23.8137 47.3836 24.1187 45.5489 24.1187 45.5489C24.2064 44.885 24.2971 43.8553 24.035 43.1978C23.7434 42.4741 22.591 42.0983 21.7442 41.9159C9.24974 40.2641 0 31.5293 0 21.0993C0 9.46506 11.6646 0 25.9998 0ZM16.3211 24.9804H11.3658V15.9834C11.3658 15.7037 11.139 15.477 10.8599 15.477H9.03566C8.75604 15.477 8.52926 15.7037 8.52926 15.9834V27.3115C8.52926 27.4476 8.58359 27.5707 8.67081 27.6614L8.67383 27.665L8.67779 27.6689L8.68527 27.6759C8.77648 27.7636 8.89909 27.8174 9.03516 27.8174H16.3211C16.6007 27.8174 16.8265 27.5901 16.8265 27.3105V25.4868C16.8265 25.2072 16.6007 24.9804 16.3211 24.9804ZM18.8935 15.4772C18.6139 15.4772 18.3866 15.704 18.3866 15.9826V27.3118C18.3866 27.5909 18.6139 27.8172 18.8935 27.8172H20.7172C20.9969 27.8172 21.2236 27.5909 21.2236 27.3118V15.9826C21.2236 15.704 20.9969 15.4772 20.7172 15.4772H18.8935ZM31.4463 15.4772C31.1666 15.4772 30.9399 15.704 30.9399 15.9826V22.7134L25.7483 15.702C25.7363 15.6841 25.7229 15.6671 25.7089 15.6507L25.7054 15.6477C25.6954 15.6362 25.6855 15.6263 25.675 15.6163L25.6655 15.6078C25.6571 15.5999 25.6481 15.5924 25.6386 15.5854C25.6357 15.5825 25.6325 15.5801 25.6292 15.5777L25.6257 15.5749L25.6088 15.5632L25.5992 15.557C25.5943 15.5535 25.5893 15.5505 25.5838 15.548C25.5748 15.5425 25.5659 15.5371 25.5569 15.5326L25.5509 15.5296L25.5409 15.5251C25.5315 15.5206 25.522 15.5161 25.512 15.5126L25.4956 15.5067C25.4856 15.5032 25.4756 15.4997 25.4652 15.4972L25.4561 15.4946L25.4477 15.4922L25.4188 15.4857L25.3974 15.4832L25.39 15.4819L25.3772 15.4804L25.3705 15.4797L25.3531 15.4786L25.3446 15.4782L25.3266 15.4772H23.5034C23.2238 15.4772 22.9965 15.704 22.9965 15.9826V27.3118C22.9965 27.5909 23.2238 27.8172 23.5034 27.8172H25.3266C25.6067 27.8172 25.8335 27.5909 25.8335 27.3118V20.5831L31.0316 27.6034C31.0674 27.6542 31.1118 27.6956 31.1602 27.7285L31.1651 27.7325L31.1965 27.7514C31.2015 27.7544 31.206 27.7564 31.211 27.7589C31.2185 27.7634 31.2269 27.7674 31.2349 27.7709L31.2598 27.7813L31.2748 27.7868C31.2868 27.7913 31.2977 27.7948 31.3092 27.7983C31.3117 27.7983 31.3142 27.7993 31.3167 27.7998C31.358 27.8107 31.4014 27.8172 31.4463 27.8172H33.27C33.5501 27.8172 33.7764 27.5909 33.7764 27.3118V15.9826C33.7764 15.704 33.5501 15.4772 33.27 15.4772H31.4463ZM43.8467 17.8076V15.9838C43.8467 15.7042 43.6209 15.477 43.3413 15.477H36.0548C35.9183 15.477 35.7951 15.5318 35.7039 15.62L35.7013 15.6223L35.698 15.6255L35.69 15.6345C35.6033 15.7252 35.5494 15.8478 35.5494 15.9834V27.3115C35.5494 27.4476 35.6037 27.5707 35.691 27.6614C35.693 27.6639 35.6955 27.6669 35.698 27.6689C35.6999 27.6714 35.7029 27.6739 35.7054 27.6759C35.7961 27.7631 35.9193 27.8174 36.0548 27.8174H43.3413C43.6209 27.8174 43.8467 27.5901 43.8467 27.311V25.4868C43.8467 25.2077 43.6209 24.9804 43.3413 24.9804H38.3864V23.0654H43.3413C43.6209 23.0654 43.8467 22.8387 43.8467 22.559V20.7353C43.8467 20.4557 43.6209 20.2284 43.3413 20.2284H38.3864V18.314H43.3413C43.6209 18.314 43.8467 18.0877 43.8467 17.8076Z" fill="white"/>
</svg>
