<svg width="52" height="52" viewBox="0 0 52 52" fill="none" xmlns="http://www.w3.org/2000/svg">
<path d="M25.9998 0C11.6408 0 0 11.6405 0 25.9995C0 40.3592 11.6408 51.9988 25.9998 51.9988C40.3604 51.9988 52 40.3592 52 25.9995C52 11.6415 40.3604 0.00124188 25.9995 0.00124188L25.9998 0ZM37.9232 37.4988C37.4575 38.2626 36.4578 38.5047 35.694 38.0359C29.5895 34.3071 21.9047 33.4627 12.8545 35.5304C11.9824 35.7291 11.113 35.1827 10.9143 34.3102C10.7147 33.4378 11.259 32.5685 12.1332 32.3698C22.0373 30.1071 30.5327 31.0813 37.3861 35.2696C38.1499 35.7384 38.392 36.735 37.9232 37.4988ZM41.1055 30.4194C40.5187 31.3732 39.2707 31.6743 38.3175 31.0875C31.3288 26.7919 20.6756 25.5478 12.4093 28.057C11.3372 28.3809 10.2049 27.7767 9.87953 26.7065C9.55663 25.6344 10.1611 24.5043 11.2313 24.1783C20.6737 21.3133 32.4123 22.7011 40.438 27.6329C41.3912 28.2197 41.6923 29.4675 41.1055 30.4194ZM41.3788 23.0476C32.9991 18.0704 19.1738 17.6128 11.1733 20.041C9.88853 20.4306 8.5299 19.7053 8.14057 18.4206C7.75124 17.1353 8.47588 15.7776 9.76155 15.387C18.9456 12.5989 34.2131 13.1376 43.8607 18.8649C45.0187 19.5507 45.3975 21.0432 44.7114 22.1972C44.0283 23.3528 42.5318 23.7337 41.38 23.0476H41.3788Z" fill="white"/>
</svg>
