<svg width="52" height="52" viewBox="0 0 52 52" fill="none" xmlns="http://www.w3.org/2000/svg">
<path d="M16.3345 48.75C35.9568 48.75 46.6939 32.4904 46.6939 18.414C46.6939 17.9566 46.6939 17.4991 46.6731 17.0417C48.7539 15.5447 50.5642 13.6526 52 11.5109C50.0856 12.3634 48.0256 12.9248 45.8615 13.1951C48.0672 11.8852 49.7527 9.78519 50.5642 7.29011C48.5042 8.51685 46.2153 9.39013 43.7807 9.86836C41.8247 7.78912 39.0572 6.5 35.9984 6.5C30.1096 6.5 25.3237 11.2822 25.3237 17.1665C25.3237 17.9982 25.4278 18.8091 25.5942 19.5992C16.7299 19.1625 8.86435 14.9001 3.59984 8.45448C2.68427 10.0347 2.16407 11.8644 2.16407 13.8189C2.16407 17.5199 4.05762 20.7843 6.90836 22.6972C5.16047 22.6348 3.51661 22.1566 2.08083 21.3665C2.08083 21.4081 2.08083 21.4497 2.08083 21.5121C2.08083 26.6686 5.76391 30.9934 10.6331 31.9706C9.7383 32.2201 8.80192 32.3449 7.82393 32.3449C7.13725 32.3449 6.47139 32.2825 5.82633 32.1577C7.17887 36.3994 11.1325 39.4766 15.7935 39.5598C12.1313 42.4291 7.53261 44.1341 2.53862 44.1341C1.68548 44.1341 0.832333 44.0925 0 43.9886C4.70268 46.9827 10.3209 48.75 16.3345 48.75Z" fill="white"/>
</svg>
