<svg width="53" height="52" viewBox="0 0 53 52" fill="none" xmlns="http://www.w3.org/2000/svg">
<path d="M27.1662 6.49561C27.1847 6.49564 27.2047 6.49569 27.226 6.49574L27.4561 6.49646C30.127 6.50627 43.6636 6.60439 47.3133 7.5856C49.5507 8.18569 51.3125 9.9542 51.9105 12.1991C52.2397 13.4324 52.4691 15.0717 52.6291 16.7577L52.6601 17.0954C52.6852 17.3772 52.7085 17.6596 52.73 17.9409L52.755 18.2779C52.9686 21.2488 52.9936 24.0289 52.9965 24.6371L52.9968 24.7191C52.9968 24.7259 52.9968 24.7368 52.9968 24.7368V24.7829C52.9968 24.7829 52.9968 24.7939 52.9968 24.8006L52.9965 24.8827C52.9935 25.5139 52.9667 28.4841 52.73 31.579L52.7034 31.9171L52.675 32.2554C52.514 34.1163 52.2726 35.9641 51.9105 37.3207C51.3125 39.5656 49.5507 41.3345 47.3133 41.9342C43.5419 42.9485 29.2135 43.0195 27.226 43.0244L27.073 43.0247C27.0605 43.0248 27.0494 43.0248 27.0399 43.0248L26.9775 43.0248C26.9775 43.0248 26.9631 43.0248 26.9536 43.0248L26.7675 43.0244C25.7631 43.0219 21.6068 43.0026 17.2542 42.8531L16.6977 42.8333C16.6049 42.8299 16.512 42.8264 16.4191 42.8228L15.862 42.8008L15.3061 42.7773C11.7002 42.619 8.2622 42.3595 6.68065 41.9342C4.44327 41.3345 2.68146 39.5656 2.08348 37.3207C1.72122 35.9641 1.47971 34.1163 1.3187 32.2554L1.2903 31.9171L1.26363 31.579C1.03544 28.5966 1.00231 25.7301 0.997503 24.9607L0.996928 24.8506C0.996888 24.8407 0.996854 24.8315 0.996826 24.8232V24.6966C0.996854 24.6882 0.996888 24.6791 0.996928 24.6692L0.997503 24.5591C1.00186 23.8623 1.02944 21.4455 1.20411 18.7802L1.22672 18.4459C1.23062 18.39 1.23459 18.334 1.23862 18.2779L1.26363 17.9409C1.28516 17.6596 1.30842 17.3772 1.33356 17.0954L1.36464 16.7577C1.52462 15.0717 1.75415 13.4324 2.08348 12.1991C2.68146 9.9542 4.44327 8.18569 6.68065 7.5856C8.2622 7.16041 11.7002 6.90104 15.3061 6.74283L15.862 6.71928L16.4191 6.69727C16.512 6.69373 16.6049 6.69025 16.6977 6.68683L17.2542 6.66704C21.329 6.52716 25.2317 6.50126 26.5374 6.49646L26.7675 6.49574C26.7889 6.49569 26.8088 6.49564 26.8273 6.49561H27.1662ZM21.7969 16.932V32.5878L35.3063 24.7603L21.7969 16.932Z" fill="white"/>
</svg>
