<svg width="702" height="153" viewBox="0 0 702 153" fill="none" xmlns="http://www.w3.org/2000/svg">
<mask id="path-1-outside-1_11_2" maskUnits="userSpaceOnUse" x="0" y="0" width="702" height="153" fill="black">
<rect fill="white" width="702" height="153"/>
<path d="M126.213 100.277C126.213 109.113 119.05 116.276 110.215 116.276C101.379 116.276 94.2166 109.113 94.2166 100.277C94.2166 91.4416 101.379 84.2787 110.215 84.2787C119.05 84.2787 126.213 91.4416 126.213 100.277Z"/>
<path d="M390.185 100.277C390.185 109.113 383.022 116.276 374.186 116.276C365.351 116.276 358.188 109.113 358.188 100.277C358.188 91.4416 365.351 84.2787 374.186 84.2787C383.022 84.2787 390.185 91.4416 390.185 100.277Z"/>
<path d="M27.4931 150.94C22.3737 150.94 17.7662 149.532 13.6706 146.716C9.70306 143.901 6.5674 139.997 4.26365 135.005C2.08788 130.014 1 124.254 1 117.727V8.29542C1 6.11959 1.63993 4.39172 2.91979 3.11183C4.32764 1.70394 6.11945 1 8.29521 1C10.471 1 12.1988 1.70394 13.4787 3.11183C14.8865 4.39172 15.5904 6.11959 15.5904 8.29542V117.727C15.5904 123.23 16.6783 127.71 18.8541 131.166C21.1578 134.621 24.0375 136.349 27.4931 136.349H32.2926C34.2124 136.349 35.7483 137.053 36.9001 138.461C38.052 139.741 38.6279 141.469 38.6279 143.645C38.6279 145.82 37.796 147.612 36.1322 149.02C34.5964 150.3 32.5486 150.94 29.9889 150.94H27.4931Z"/>
<path d="M110.611 151.9C100.372 151.9 91.2213 149.596 83.1581 144.989C75.095 140.381 68.7597 134.045 64.1522 125.982C59.5447 117.919 57.2409 108.767 57.2409 98.5282C57.2409 88.1611 59.5447 78.9458 64.1522 70.8824C68.7597 62.8191 75.095 56.4836 83.1581 51.8759C91.2213 47.2683 100.372 44.9645 110.611 44.9645C120.85 44.9645 129.937 47.2683 137.872 51.8759C145.935 56.4836 152.271 62.8191 156.878 70.8824C161.486 78.9458 163.853 88.1611 163.981 98.5282C163.981 108.767 161.614 117.919 156.878 125.982C152.271 134.045 145.935 140.381 137.872 144.989C129.937 149.596 120.85 151.9 110.611 151.9ZM110.611 138.461C118.034 138.461 124.69 136.733 130.577 133.277C136.464 129.822 141.072 125.086 144.4 119.071C147.727 113.055 149.391 106.208 149.391 98.5282C149.391 90.8488 147.727 84.0014 144.4 77.9859C141.072 71.8424 136.464 67.0427 130.577 63.587C124.69 60.1313 118.034 58.4034 110.611 58.4034C103.188 58.4034 96.5327 60.1313 90.6453 63.587C84.758 67.0427 80.0865 71.8424 76.6308 77.9859C73.3032 84.0014 71.6394 90.8488 71.6394 98.5282C71.6394 106.208 73.3032 113.055 76.6308 119.071C80.0865 125.086 84.758 129.822 90.6453 133.277C96.5327 136.733 103.188 138.461 110.611 138.461Z"/>
<path d="M249.174 151.9C239.063 151.9 230.04 149.596 222.105 144.989C214.297 140.253 208.09 133.853 203.483 125.79C199.003 117.727 196.763 108.639 196.763 98.5282C196.763 88.289 198.939 79.1378 203.291 71.0744C207.642 63.0111 213.594 56.6756 221.145 52.0679C228.696 47.3323 237.399 44.9645 247.254 44.9645C255.061 44.9645 262.228 46.5004 268.756 49.5721C275.411 52.6439 281.234 57.2515 286.226 63.395C287.634 64.9309 288.146 66.5948 287.762 68.3866C287.378 70.0505 286.29 71.5224 284.498 72.8023C283.09 73.8262 281.49 74.2102 279.698 73.9542C278.035 73.5702 276.563 72.6103 275.283 71.0744C267.86 62.6271 258.517 58.4034 247.254 58.4034C240.087 58.4034 233.751 60.1313 228.248 63.587C222.873 67.0427 218.649 71.7784 215.577 77.7939C212.634 83.8094 211.162 90.7209 211.162 98.5282C211.162 106.208 212.762 113.055 215.961 119.071C219.161 125.086 223.64 129.822 229.4 133.277C235.159 136.733 241.751 138.461 249.174 138.461C254.165 138.461 258.709 137.821 262.804 136.541C267.028 135.133 270.739 133.021 273.939 130.206C275.475 128.926 277.075 128.222 278.739 128.094C280.402 127.966 281.938 128.478 283.346 129.63C284.882 131.038 285.714 132.638 285.842 134.429C286.098 136.221 285.522 137.757 284.114 139.037C274.771 147.612 263.124 151.9 249.174 151.9Z"/>
<path d="M373.908 151.9C363.669 151.9 354.518 149.596 346.455 144.989C338.392 140.381 332.056 134.045 327.449 125.982C322.841 117.919 320.538 108.767 320.538 98.5282C320.538 88.1611 322.841 78.9458 327.449 70.8824C332.056 62.8191 338.392 56.4836 346.455 51.8759C354.518 47.2683 363.669 44.9645 373.908 44.9645C384.147 44.9645 393.234 47.2683 401.169 51.8759C409.232 56.4836 415.567 62.8191 420.175 70.8824C424.782 78.9458 427.15 88.1611 427.278 98.5282C427.278 108.767 424.91 117.919 420.175 125.982C415.567 134.045 409.232 140.381 401.169 144.989C393.234 149.596 384.147 151.9 373.908 151.9ZM373.908 138.461C381.331 138.461 387.986 136.733 393.874 133.277C399.761 129.822 404.368 125.086 407.696 119.071C411.024 113.055 412.688 106.208 412.688 98.5282C412.688 90.8488 411.024 84.0014 407.696 77.9859C404.368 71.8424 399.761 67.0427 393.874 63.587C387.986 60.1313 381.331 58.4034 373.908 58.4034C366.485 58.4034 359.829 60.1313 353.942 63.587C348.055 67.0427 343.383 71.8424 339.927 77.9859C336.6 84.0014 334.936 90.8488 334.936 98.5282C334.936 106.208 336.6 113.055 339.927 119.071C343.383 125.086 348.055 129.822 353.942 133.277C359.829 136.733 366.485 138.461 373.908 138.461Z"/>
<path d="M462.94 105.824C460.892 105.824 459.164 105.12 457.756 103.712C456.348 102.304 455.644 100.576 455.644 98.5282C455.644 96.3524 456.348 94.5605 457.756 93.1527C459.164 91.7448 460.892 91.0408 462.94 91.0408H508.055C510.231 91.0408 512.022 91.7448 513.43 93.1527C514.838 94.5605 515.542 96.3524 515.542 98.5282C515.542 100.576 514.838 102.304 513.43 103.712C512.022 105.12 510.231 105.824 508.055 105.824H462.94Z"/>
<path d="M547.723 150.94C545.675 150.94 543.883 150.236 542.347 148.828C540.939 147.292 540.235 145.5 540.235 143.453V8.4874C540.235 6.31157 540.939 4.51971 542.347 3.11183C543.755 1.70394 545.547 1 547.723 1H637.761C639.937 1 641.728 1.70394 643.136 3.11183C644.544 4.39172 645.248 6.11959 645.248 8.29542C645.248 10.2153 644.544 11.8791 643.136 13.287C641.728 14.6949 639.937 15.3989 637.761 15.3989H555.21V68.3866H615.299C617.475 68.3866 619.267 69.0906 620.675 70.4985C622.082 71.9064 622.786 73.6342 622.786 75.6821C622.786 77.7299 622.082 79.4577 620.675 80.8656C619.267 82.2735 617.475 82.9775 615.299 82.9775H555.21V143.453C555.21 145.5 554.506 147.292 553.098 148.828C551.69 150.236 549.898 150.94 547.723 150.94Z"/>
<path d="M690.363 150.94C688.059 150.94 686.204 150.3 684.796 149.02C683.516 147.612 682.876 145.756 682.876 143.453V53.4118C682.876 51.108 683.516 49.3161 684.796 48.0363C686.204 46.6284 688.059 45.9244 690.363 45.9244C692.539 45.9244 694.267 46.6284 695.547 48.0363C696.954 49.3161 697.658 51.108 697.658 53.4118V143.453C697.658 145.756 696.954 147.612 695.547 149.02C694.267 150.3 692.539 150.94 690.363 150.94ZM690.171 25.958C687.355 25.958 684.924 24.9341 682.876 22.8862C680.828 20.8384 679.804 18.3426 679.804 15.3989C679.804 12.1991 680.828 9.70331 682.876 7.91144C685.052 5.9916 687.547 5.03167 690.363 5.03167C693.051 5.03167 695.419 5.9916 697.466 7.91144C699.642 9.70331 700.73 12.1991 700.73 15.3989C700.73 18.3426 699.706 20.8384 697.658 22.8862C695.611 24.9341 693.115 25.958 690.171 25.958Z"/>
</mask>
<path d="M126.213 100.277C126.213 109.113 119.05 116.276 110.215 116.276C101.379 116.276 94.2166 109.113 94.2166 100.277C94.2166 91.4416 101.379 84.2787 110.215 84.2787C119.05 84.2787 126.213 91.4416 126.213 100.277Z" fill="#F97F10"/>
<path d="M390.185 100.277C390.185 109.113 383.022 116.276 374.186 116.276C365.351 116.276 358.188 109.113 358.188 100.277C358.188 91.4416 365.351 84.2787 374.186 84.2787C383.022 84.2787 390.185 91.4416 390.185 100.277Z" fill="white"/>
<path d="M27.4931 150.94C22.3737 150.94 17.7662 149.532 13.6706 146.716C9.70306 143.901 6.5674 139.997 4.26365 135.005C2.08788 130.014 1 124.254 1 117.727V8.29542C1 6.11959 1.63993 4.39172 2.91979 3.11183C4.32764 1.70394 6.11945 1 8.29521 1C10.471 1 12.1988 1.70394 13.4787 3.11183C14.8865 4.39172 15.5904 6.11959 15.5904 8.29542V117.727C15.5904 123.23 16.6783 127.71 18.8541 131.166C21.1578 134.621 24.0375 136.349 27.4931 136.349H32.2926C34.2124 136.349 35.7483 137.053 36.9001 138.461C38.052 139.741 38.6279 141.469 38.6279 143.645C38.6279 145.82 37.796 147.612 36.1322 149.02C34.5964 150.3 32.5486 150.94 29.9889 150.94H27.4931Z" fill="white"/>
<path d="M110.611 151.9C100.372 151.9 91.2213 149.596 83.1581 144.989C75.095 140.381 68.7597 134.045 64.1522 125.982C59.5447 117.919 57.2409 108.767 57.2409 98.5282C57.2409 88.1611 59.5447 78.9458 64.1522 70.8824C68.7597 62.8191 75.095 56.4836 83.1581 51.8759C91.2213 47.2683 100.372 44.9645 110.611 44.9645C120.85 44.9645 129.937 47.2683 137.872 51.8759C145.935 56.4836 152.271 62.8191 156.878 70.8824C161.486 78.9458 163.853 88.1611 163.981 98.5282C163.981 108.767 161.614 117.919 156.878 125.982C152.271 134.045 145.935 140.381 137.872 144.989C129.937 149.596 120.85 151.9 110.611 151.9ZM110.611 138.461C118.034 138.461 124.69 136.733 130.577 133.277C136.464 129.822 141.072 125.086 144.4 119.071C147.727 113.055 149.391 106.208 149.391 98.5282C149.391 90.8488 147.727 84.0014 144.4 77.9859C141.072 71.8424 136.464 67.0427 130.577 63.587C124.69 60.1313 118.034 58.4034 110.611 58.4034C103.188 58.4034 96.5327 60.1313 90.6453 63.587C84.758 67.0427 80.0865 71.8424 76.6308 77.9859C73.3032 84.0014 71.6394 90.8488 71.6394 98.5282C71.6394 106.208 73.3032 113.055 76.6308 119.071C80.0865 125.086 84.758 129.822 90.6453 133.277C96.5327 136.733 103.188 138.461 110.611 138.461Z" fill="white"/>
<path d="M249.174 151.9C239.063 151.9 230.04 149.596 222.105 144.989C214.297 140.253 208.09 133.853 203.483 125.79C199.003 117.727 196.763 108.639 196.763 98.5282C196.763 88.289 198.939 79.1378 203.291 71.0744C207.642 63.0111 213.594 56.6756 221.145 52.0679C228.696 47.3323 237.399 44.9645 247.254 44.9645C255.061 44.9645 262.228 46.5004 268.756 49.5721C275.411 52.6439 281.234 57.2515 286.226 63.395C287.634 64.9309 288.146 66.5948 287.762 68.3866C287.378 70.0505 286.29 71.5224 284.498 72.8023C283.09 73.8262 281.49 74.2102 279.698 73.9542C278.035 73.5702 276.563 72.6103 275.283 71.0744C267.86 62.6271 258.517 58.4034 247.254 58.4034C240.087 58.4034 233.751 60.1313 228.248 63.587C222.873 67.0427 218.649 71.7784 215.577 77.7939C212.634 83.8094 211.162 90.7209 211.162 98.5282C211.162 106.208 212.762 113.055 215.961 119.071C219.161 125.086 223.64 129.822 229.4 133.277C235.159 136.733 241.751 138.461 249.174 138.461C254.165 138.461 258.709 137.821 262.804 136.541C267.028 135.133 270.739 133.021 273.939 130.206C275.475 128.926 277.075 128.222 278.739 128.094C280.402 127.966 281.938 128.478 283.346 129.63C284.882 131.038 285.714 132.638 285.842 134.429C286.098 136.221 285.522 137.757 284.114 139.037C274.771 147.612 263.124 151.9 249.174 151.9Z" fill="white"/>
<path d="M373.908 151.9C363.669 151.9 354.518 149.596 346.455 144.989C338.392 140.381 332.056 134.045 327.449 125.982C322.841 117.919 320.538 108.767 320.538 98.5282C320.538 88.1611 322.841 78.9458 327.449 70.8824C332.056 62.8191 338.392 56.4836 346.455 51.8759C354.518 47.2683 363.669 44.9645 373.908 44.9645C384.147 44.9645 393.234 47.2683 401.169 51.8759C409.232 56.4836 415.567 62.8191 420.175 70.8824C424.782 78.9458 427.15 88.1611 427.278 98.5282C427.278 108.767 424.91 117.919 420.175 125.982C415.567 134.045 409.232 140.381 401.169 144.989C393.234 149.596 384.147 151.9 373.908 151.9ZM373.908 138.461C381.331 138.461 387.986 136.733 393.874 133.277C399.761 129.822 404.368 125.086 407.696 119.071C411.024 113.055 412.688 106.208 412.688 98.5282C412.688 90.8488 411.024 84.0014 407.696 77.9859C404.368 71.8424 399.761 67.0427 393.874 63.587C387.986 60.1313 381.331 58.4034 373.908 58.4034C366.485 58.4034 359.829 60.1313 353.942 63.587C348.055 67.0427 343.383 71.8424 339.927 77.9859C336.6 84.0014 334.936 90.8488 334.936 98.5282C334.936 106.208 336.6 113.055 339.927 119.071C343.383 125.086 348.055 129.822 353.942 133.277C359.829 136.733 366.485 138.461 373.908 138.461Z" fill="white"/>
<path d="M462.94 105.824C460.892 105.824 459.164 105.12 457.756 103.712C456.348 102.304 455.644 100.576 455.644 98.5282C455.644 96.3524 456.348 94.5605 457.756 93.1527C459.164 91.7448 460.892 91.0408 462.94 91.0408H508.055C510.231 91.0408 512.022 91.7448 513.43 93.1527C514.838 94.5605 515.542 96.3524 515.542 98.5282C515.542 100.576 514.838 102.304 513.43 103.712C512.022 105.12 510.231 105.824 508.055 105.824H462.94Z" fill="white"/>
<path d="M547.723 150.94C545.675 150.94 543.883 150.236 542.347 148.828C540.939 147.292 540.235 145.5 540.235 143.453V8.4874C540.235 6.31157 540.939 4.51971 542.347 3.11183C543.755 1.70394 545.547 1 547.723 1H637.761C639.937 1 641.728 1.70394 643.136 3.11183C644.544 4.39172 645.248 6.11959 645.248 8.29542C645.248 10.2153 644.544 11.8791 643.136 13.287C641.728 14.6949 639.937 15.3989 637.761 15.3989H555.21V68.3866H615.299C617.475 68.3866 619.267 69.0906 620.675 70.4985C622.082 71.9064 622.786 73.6342 622.786 75.6821C622.786 77.7299 622.082 79.4577 620.675 80.8656C619.267 82.2735 617.475 82.9775 615.299 82.9775H555.21V143.453C555.21 145.5 554.506 147.292 553.098 148.828C551.69 150.236 549.898 150.94 547.723 150.94Z" fill="white"/>
<path d="M690.363 150.94C688.059 150.94 686.204 150.3 684.796 149.02C683.516 147.612 682.876 145.756 682.876 143.453V53.4118C682.876 51.108 683.516 49.3161 684.796 48.0363C686.204 46.6284 688.059 45.9244 690.363 45.9244C692.539 45.9244 694.267 46.6284 695.547 48.0363C696.954 49.3161 697.658 51.108 697.658 53.4118V143.453C697.658 145.756 696.954 147.612 695.547 149.02C694.267 150.3 692.539 150.94 690.363 150.94ZM690.171 25.958C687.355 25.958 684.924 24.9341 682.876 22.8862C680.828 20.8384 679.804 18.3426 679.804 15.3989C679.804 12.1991 680.828 9.70331 682.876 7.91144C685.052 5.9916 687.547 5.03167 690.363 5.03167C693.051 5.03167 695.419 5.9916 697.466 7.91144C699.642 9.70331 700.73 12.1991 700.73 15.3989C700.73 18.3426 699.706 20.8384 697.658 22.8862C695.611 24.9341 693.115 25.958 690.171 25.958Z" fill="white"/>
<path d="M126.213 100.277C126.213 109.113 119.05 116.276 110.215 116.276C101.379 116.276 94.2166 109.113 94.2166 100.277C94.2166 91.4416 101.379 84.2787 110.215 84.2787C119.05 84.2787 126.213 91.4416 126.213 100.277Z" stroke="black" stroke-width="2" mask="url(#path-1-outside-1_11_2)"/>
<path d="M390.185 100.277C390.185 109.113 383.022 116.276 374.186 116.276C365.351 116.276 358.188 109.113 358.188 100.277C358.188 91.4416 365.351 84.2787 374.186 84.2787C383.022 84.2787 390.185 91.4416 390.185 100.277Z" stroke="black" stroke-width="2" mask="url(#path-1-outside-1_11_2)"/>
<path d="M27.4931 150.94C22.3737 150.94 17.7662 149.532 13.6706 146.716C9.70306 143.901 6.5674 139.997 4.26365 135.005C2.08788 130.014 1 124.254 1 117.727V8.29542C1 6.11959 1.63993 4.39172 2.91979 3.11183C4.32764 1.70394 6.11945 1 8.29521 1C10.471 1 12.1988 1.70394 13.4787 3.11183C14.8865 4.39172 15.5904 6.11959 15.5904 8.29542V117.727C15.5904 123.23 16.6783 127.71 18.8541 131.166C21.1578 134.621 24.0375 136.349 27.4931 136.349H32.2926C34.2124 136.349 35.7483 137.053 36.9001 138.461C38.052 139.741 38.6279 141.469 38.6279 143.645C38.6279 145.82 37.796 147.612 36.1322 149.02C34.5964 150.3 32.5486 150.94 29.9889 150.94H27.4931Z" stroke="black" stroke-width="2" mask="url(#path-1-outside-1_11_2)"/>
<path d="M110.611 151.9C100.372 151.9 91.2213 149.596 83.1581 144.989C75.095 140.381 68.7597 134.045 64.1522 125.982C59.5447 117.919 57.2409 108.767 57.2409 98.5282C57.2409 88.1611 59.5447 78.9458 64.1522 70.8824C68.7597 62.8191 75.095 56.4836 83.1581 51.8759C91.2213 47.2683 100.372 44.9645 110.611 44.9645C120.85 44.9645 129.937 47.2683 137.872 51.8759C145.935 56.4836 152.271 62.8191 156.878 70.8824C161.486 78.9458 163.853 88.1611 163.981 98.5282C163.981 108.767 161.614 117.919 156.878 125.982C152.271 134.045 145.935 140.381 137.872 144.989C129.937 149.596 120.85 151.9 110.611 151.9ZM110.611 138.461C118.034 138.461 124.69 136.733 130.577 133.277C136.464 129.822 141.072 125.086 144.4 119.071C147.727 113.055 149.391 106.208 149.391 98.5282C149.391 90.8488 147.727 84.0014 144.4 77.9859C141.072 71.8424 136.464 67.0427 130.577 63.587C124.69 60.1313 118.034 58.4034 110.611 58.4034C103.188 58.4034 96.5327 60.1313 90.6453 63.587C84.758 67.0427 80.0865 71.8424 76.6308 77.9859C73.3032 84.0014 71.6394 90.8488 71.6394 98.5282C71.6394 106.208 73.3032 113.055 76.6308 119.071C80.0865 125.086 84.758 129.822 90.6453 133.277C96.5327 136.733 103.188 138.461 110.611 138.461Z" stroke="black" stroke-width="2" mask="url(#path-1-outside-1_11_2)"/>
<path d="M249.174 151.9C239.063 151.9 230.04 149.596 222.105 144.989C214.297 140.253 208.09 133.853 203.483 125.79C199.003 117.727 196.763 108.639 196.763 98.5282C196.763 88.289 198.939 79.1378 203.291 71.0744C207.642 63.0111 213.594 56.6756 221.145 52.0679C228.696 47.3323 237.399 44.9645 247.254 44.9645C255.061 44.9645 262.228 46.5004 268.756 49.5721C275.411 52.6439 281.234 57.2515 286.226 63.395C287.634 64.9309 288.146 66.5948 287.762 68.3866C287.378 70.0505 286.29 71.5224 284.498 72.8023C283.09 73.8262 281.49 74.2102 279.698 73.9542C278.035 73.5702 276.563 72.6103 275.283 71.0744C267.86 62.6271 258.517 58.4034 247.254 58.4034C240.087 58.4034 233.751 60.1313 228.248 63.587C222.873 67.0427 218.649 71.7784 215.577 77.7939C212.634 83.8094 211.162 90.7209 211.162 98.5282C211.162 106.208 212.762 113.055 215.961 119.071C219.161 125.086 223.64 129.822 229.4 133.277C235.159 136.733 241.751 138.461 249.174 138.461C254.165 138.461 258.709 137.821 262.804 136.541C267.028 135.133 270.739 133.021 273.939 130.206C275.475 128.926 277.075 128.222 278.739 128.094C280.402 127.966 281.938 128.478 283.346 129.63C284.882 131.038 285.714 132.638 285.842 134.429C286.098 136.221 285.522 137.757 284.114 139.037C274.771 147.612 263.124 151.9 249.174 151.9Z" stroke="black" stroke-width="2" mask="url(#path-1-outside-1_11_2)"/>
<path d="M373.908 151.9C363.669 151.9 354.518 149.596 346.455 144.989C338.392 140.381 332.056 134.045 327.449 125.982C322.841 117.919 320.538 108.767 320.538 98.5282C320.538 88.1611 322.841 78.9458 327.449 70.8824C332.056 62.8191 338.392 56.4836 346.455 51.8759C354.518 47.2683 363.669 44.9645 373.908 44.9645C384.147 44.9645 393.234 47.2683 401.169 51.8759C409.232 56.4836 415.567 62.8191 420.175 70.8824C424.782 78.9458 427.15 88.1611 427.278 98.5282C427.278 108.767 424.91 117.919 420.175 125.982C415.567 134.045 409.232 140.381 401.169 144.989C393.234 149.596 384.147 151.9 373.908 151.9ZM373.908 138.461C381.331 138.461 387.986 136.733 393.874 133.277C399.761 129.822 404.368 125.086 407.696 119.071C411.024 113.055 412.688 106.208 412.688 98.5282C412.688 90.8488 411.024 84.0014 407.696 77.9859C404.368 71.8424 399.761 67.0427 393.874 63.587C387.986 60.1313 381.331 58.4034 373.908 58.4034C366.485 58.4034 359.829 60.1313 353.942 63.587C348.055 67.0427 343.383 71.8424 339.927 77.9859C336.6 84.0014 334.936 90.8488 334.936 98.5282C334.936 106.208 336.6 113.055 339.927 119.071C343.383 125.086 348.055 129.822 353.942 133.277C359.829 136.733 366.485 138.461 373.908 138.461Z" stroke="black" stroke-width="2" mask="url(#path-1-outside-1_11_2)"/>
<path d="M462.94 105.824C460.892 105.824 459.164 105.12 457.756 103.712C456.348 102.304 455.644 100.576 455.644 98.5282C455.644 96.3524 456.348 94.5605 457.756 93.1527C459.164 91.7448 460.892 91.0408 462.94 91.0408H508.055C510.231 91.0408 512.022 91.7448 513.43 93.1527C514.838 94.5605 515.542 96.3524 515.542 98.5282C515.542 100.576 514.838 102.304 513.43 103.712C512.022 105.12 510.231 105.824 508.055 105.824H462.94Z" stroke="black" stroke-width="2" mask="url(#path-1-outside-1_11_2)"/>
<path d="M547.723 150.94C545.675 150.94 543.883 150.236 542.347 148.828C540.939 147.292 540.235 145.5 540.235 143.453V8.4874C540.235 6.31157 540.939 4.51971 542.347 3.11183C543.755 1.70394 545.547 1 547.723 1H637.761C639.937 1 641.728 1.70394 643.136 3.11183C644.544 4.39172 645.248 6.11959 645.248 8.29542C645.248 10.2153 644.544 11.8791 643.136 13.287C641.728 14.6949 639.937 15.3989 637.761 15.3989H555.21V68.3866H615.299C617.475 68.3866 619.267 69.0906 620.675 70.4985C622.082 71.9064 622.786 73.6342 622.786 75.6821C622.786 77.7299 622.082 79.4577 620.675 80.8656C619.267 82.2735 617.475 82.9775 615.299 82.9775H555.21V143.453C555.21 145.5 554.506 147.292 553.098 148.828C551.69 150.236 549.898 150.94 547.723 150.94Z" stroke="black" stroke-width="2" mask="url(#path-1-outside-1_11_2)"/>
<path d="M690.363 150.94C688.059 150.94 686.204 150.3 684.796 149.02C683.516 147.612 682.876 145.756 682.876 143.453V53.4118C682.876 51.108 683.516 49.3161 684.796 48.0363C686.204 46.6284 688.059 45.9244 690.363 45.9244C692.539 45.9244 694.267 46.6284 695.547 48.0363C696.954 49.3161 697.658 51.108 697.658 53.4118V143.453C697.658 145.756 696.954 147.612 695.547 149.02C694.267 150.3 692.539 150.94 690.363 150.94ZM690.171 25.958C687.355 25.958 684.924 24.9341 682.876 22.8862C680.828 20.8384 679.804 18.3426 679.804 15.3989C679.804 12.1991 680.828 9.70331 682.876 7.91144C685.052 5.9916 687.547 5.03167 690.363 5.03167C693.051 5.03167 695.419 5.9916 697.466 7.91144C699.642 9.70331 700.73 12.1991 700.73 15.3989C700.73 18.3426 699.706 20.8384 697.658 22.8862C695.611 24.9341 693.115 25.958 690.171 25.958Z" stroke="black" stroke-width="2" mask="url(#path-1-outside-1_11_2)"/>
</svg>
