<svg width="274" height="58" viewBox="0 0 274 58" fill="none" xmlns="http://www.w3.org/2000/svg">
<circle cx="46" cy="38" r="6" fill="#F97F10"/>
<circle cx="145" cy="38" r="5.5" fill="black" stroke="black"/>
<path d="M14.976 57C13.056 57 11.328 56.472 9.792 55.416C8.304 54.36 7.128 52.896 6.264 51.024C5.448 49.152 5.04 46.992 5.04 44.544V3.504C5.04 2.688 5.28 2.04 5.76 1.56C6.288 1.032 6.96 0.767999 7.776 0.767999C8.592 0.767999 9.24 1.032 9.72 1.56C10.248 2.04 10.512 2.688 10.512 3.504V44.544C10.512 46.608 10.92 48.288 11.736 49.584C12.6 50.88 13.68 51.528 14.976 51.528H16.776C17.496 51.528 18.072 51.792 18.504 52.32C18.936 52.8 19.152 53.448 19.152 54.264C19.152 55.08 18.84 55.752 18.216 56.28C17.64 56.76 16.872 57 15.912 57H14.976ZM46.1486 57.36C42.3086 57.36 38.8766 56.496 35.8526 54.768C32.8286 53.04 30.4526 50.664 28.7246 47.64C26.9966 44.616 26.1326 41.184 26.1326 37.344C26.1326 33.456 26.9966 30 28.7246 26.976C30.4526 23.952 32.8286 21.576 35.8526 19.848C38.8766 18.12 42.3086 17.256 46.1486 17.256C49.9886 17.256 53.3966 18.12 56.3726 19.848C59.3966 21.576 61.7726 23.952 63.5006 26.976C65.2286 30 66.1166 33.456 66.1646 37.344C66.1646 41.184 65.2766 44.616 63.5006 47.64C61.7726 50.664 59.3966 53.04 56.3726 54.768C53.3966 56.496 49.9886 57.36 46.1486 57.36ZM46.1486 52.32C48.9326 52.32 51.4286 51.672 53.6366 50.376C55.8446 49.08 57.5726 47.304 58.8206 45.048C60.0686 42.792 60.6926 40.224 60.6926 37.344C60.6926 34.464 60.0686 31.896 58.8206 29.64C57.5726 27.336 55.8446 25.536 53.6366 24.24C51.4286 22.944 48.9326 22.296 46.1486 22.296C43.3646 22.296 40.8686 22.944 38.6606 24.24C36.4526 25.536 34.7006 27.336 33.4046 29.64C32.1566 31.896 31.5326 34.464 31.5326 37.344C31.5326 40.224 32.1566 42.792 33.4046 45.048C34.7006 47.304 36.4526 49.08 38.6606 50.376C40.8686 51.672 43.3646 52.32 46.1486 52.32ZM98.1152 57.36C94.3232 57.36 90.9392 56.496 87.9632 54.768C85.0352 52.992 82.7072 50.592 80.9792 47.568C79.2992 44.544 78.4592 41.136 78.4592 37.344C78.4592 33.504 79.2752 30.072 80.9072 27.048C82.5392 24.024 84.7712 21.648 87.6032 19.92C90.4352 18.144 93.6992 17.256 97.3952 17.256C100.323 17.256 103.011 17.832 105.459 18.984C107.955 20.136 110.139 21.864 112.011 24.168C112.539 24.744 112.731 25.368 112.587 26.04C112.443 26.664 112.035 27.216 111.363 27.696C110.835 28.08 110.235 28.224 109.563 28.128C108.939 27.984 108.387 27.624 107.907 27.048C105.123 23.88 101.619 22.296 97.3952 22.296C94.7072 22.296 92.3312 22.944 90.2672 24.24C88.2512 25.536 86.6672 27.312 85.5152 29.568C84.4112 31.824 83.8592 34.416 83.8592 37.344C83.8592 40.224 84.4592 42.792 85.6592 45.048C86.8592 47.304 88.5392 49.08 90.6992 50.376C92.8592 51.672 95.3312 52.32 98.1152 52.32C99.9872 52.32 101.691 52.08 103.227 51.6C104.811 51.072 106.203 50.28 107.403 49.224C107.979 48.744 108.579 48.48 109.203 48.432C109.827 48.384 110.403 48.576 110.931 49.008C111.507 49.536 111.819 50.136 111.867 50.808C111.963 51.48 111.747 52.056 111.219 52.536C107.715 55.752 103.347 57.36 98.1152 57.36ZM144.896 57.36C141.056 57.36 137.624 56.496 134.6 54.768C131.576 53.04 129.2 50.664 127.472 47.64C125.744 44.616 124.88 41.184 124.88 37.344C124.88 33.456 125.744 30 127.472 26.976C129.2 23.952 131.576 21.576 134.6 19.848C137.624 18.12 141.056 17.256 144.896 17.256C148.736 17.256 152.144 18.12 155.12 19.848C158.144 21.576 160.52 23.952 162.248 26.976C163.976 30 164.864 33.456 164.912 37.344C164.912 41.184 164.024 44.616 162.248 47.64C160.52 50.664 158.144 53.04 155.12 54.768C152.144 56.496 148.736 57.36 144.896 57.36ZM144.896 52.32C147.68 52.32 150.176 51.672 152.384 50.376C154.592 49.08 156.32 47.304 157.568 45.048C158.816 42.792 159.44 40.224 159.44 37.344C159.44 34.464 158.816 31.896 157.568 29.64C156.32 27.336 154.592 25.536 152.384 24.24C150.176 22.944 147.68 22.296 144.896 22.296C142.112 22.296 139.616 22.944 137.408 24.24C135.2 25.536 133.448 27.336 132.152 29.64C130.904 31.896 130.28 34.464 130.28 37.344C130.28 40.224 130.904 42.792 132.152 45.048C133.448 47.304 135.2 49.08 137.408 50.376C139.616 51.672 142.112 52.32 144.896 52.32ZM178.286 40.08C177.518 40.08 176.87 39.816 176.342 39.288C175.814 38.76 175.55 38.112 175.55 37.344C175.55 36.528 175.814 35.856 176.342 35.328C176.87 34.8 177.518 34.536 178.286 34.536H195.206C196.022 34.536 196.694 34.8 197.222 35.328C197.75 35.856 198.014 36.528 198.014 37.344C198.014 38.112 197.75 38.76 197.222 39.288C196.694 39.816 196.022 40.08 195.206 40.08H178.286ZM210.083 57C209.315 57 208.643 56.736 208.067 56.208C207.539 55.632 207.275 54.96 207.275 54.192V3.576C207.275 2.76 207.539 2.088 208.067 1.56C208.595 1.032 209.267 0.767999 210.083 0.767999H243.851C244.667 0.767999 245.339 1.032 245.867 1.56C246.395 2.04 246.659 2.688 246.659 3.504C246.659 4.224 246.395 4.848 245.867 5.376C245.339 5.904 244.667 6.168 243.851 6.168H212.891V26.04H235.427C236.243 26.04 236.915 26.304 237.443 26.832C237.971 27.36 238.235 28.008 238.235 28.776C238.235 29.544 237.971 30.192 237.443 30.72C236.915 31.248 236.243 31.512 235.427 31.512H212.891V54.192C212.891 54.96 212.627 55.632 212.099 56.208C211.571 56.736 210.899 57 210.083 57ZM263.579 57C262.715 57 262.019 56.76 261.491 56.28C261.011 55.752 260.771 55.056 260.771 54.192V20.424C260.771 19.56 261.011 18.888 261.491 18.408C262.019 17.88 262.715 17.616 263.579 17.616C264.395 17.616 265.043 17.88 265.523 18.408C266.051 18.888 266.315 19.56 266.315 20.424V54.192C266.315 55.056 266.051 55.752 265.523 56.28C265.043 56.76 264.395 57 263.579 57ZM263.507 10.128C262.451 10.128 261.539 9.744 260.771 8.976C260.003 8.208 259.619 7.272 259.619 6.168C259.619 4.968 260.003 4.032 260.771 3.36C261.587 2.64 262.523 2.28 263.579 2.28C264.587 2.28 265.475 2.64 266.243 3.36C267.059 4.032 267.467 4.968 267.467 6.168C267.467 7.272 267.083 8.208 266.315 8.976C265.547 9.744 264.611 10.128 263.507 10.128Z" fill="black"/>
<path d="M9.792 55.416L9.21325 56.2315L9.21933 56.2358L9.22547 56.24L9.792 55.416ZM6.264 51.024L5.3473 51.4236L5.35157 51.4334L5.35604 51.4431L6.264 51.024ZM5.76 1.56L5.05289 0.85289L5.05289 0.85289L5.76 1.56ZM9.72 1.56L8.98006 2.23267L9.01209 2.26791L9.04733 2.29994L9.72 1.56ZM11.736 49.584L10.8898 50.1168L10.8967 50.1278L10.9039 50.1387L11.736 49.584ZM18.504 52.32L17.73 52.9532L17.745 52.9715L17.7607 52.989L18.504 52.32ZM18.216 56.28L18.8562 57.0482L18.8619 57.0434L18.216 56.28ZM14.976 56C13.2518 56 11.7226 55.5297 10.3585 54.592L9.22547 56.24C10.9334 57.4143 12.8602 58 14.976 58V56ZM10.3707 54.6005C9.04298 53.6582 7.97244 52.3393 7.17196 50.6049L5.35604 51.4431C6.28357 53.4527 7.56502 55.0618 9.21325 56.2315L10.3707 54.6005ZM7.1807 50.6244C6.42943 48.9009 6.04 46.8813 6.04 44.544H4.04C4.04 47.1027 4.46657 49.4031 5.3473 51.4236L7.1807 50.6244ZM6.04 44.544V3.504H4.04V44.544H6.04ZM6.04 3.504C6.04 2.89588 6.21163 2.52258 6.46711 2.2671L5.05289 0.85289C4.34837 1.55741 4.04 2.48011 4.04 3.504H6.04ZM6.46711 2.2671C6.78924 1.94497 7.19813 1.768 7.776 1.768V-0.232001C6.72188 -0.232001 5.78676 0.119029 5.05289 0.85289L6.46711 2.2671ZM7.776 1.768C8.35487 1.768 8.71765 1.94402 8.98006 2.23267L10.4599 0.887323C9.76235 0.119976 8.82913 -0.232001 7.776 -0.232001V1.768ZM9.04733 2.29994C9.33598 2.56235 9.512 2.92513 9.512 3.504H11.512C11.512 2.45087 11.16 1.51765 10.3927 0.820056L9.04733 2.29994ZM9.512 3.504V44.544H11.512V3.504H9.512ZM9.512 44.544C9.512 46.7329 9.94407 48.6148 10.8898 50.1168L12.5822 49.0512C11.8959 47.9612 11.512 46.4831 11.512 44.544H9.512ZM10.9039 50.1387C11.9104 51.6484 13.2749 52.528 14.976 52.528V50.528C14.0851 50.528 13.2896 50.1116 12.5681 49.0293L10.9039 50.1387ZM14.976 52.528H16.776V50.528H14.976V52.528ZM16.776 52.528C17.2152 52.528 17.4997 52.6718 17.73 52.9532L19.278 51.6868C18.6443 50.9122 17.7768 50.528 16.776 50.528V52.528ZM17.7607 52.989C17.9873 53.2407 18.152 53.6276 18.152 54.264H20.152C20.152 53.2684 19.8847 52.3593 19.2473 51.651L17.7607 52.989ZM18.152 54.264C18.152 54.7853 17.97 55.1782 17.5701 55.5166L18.8619 57.0434C19.71 56.3258 20.152 55.3747 20.152 54.264H18.152ZM17.5758 55.5118C17.225 55.8041 16.705 56 15.912 56V58C17.039 58 18.055 57.7159 18.8562 57.0482L17.5758 55.5118ZM15.912 56H14.976V58H15.912V56ZM35.8526 54.768L36.3488 53.8998L36.3488 53.8998L35.8526 54.768ZM28.7246 47.64L29.5929 47.1439L29.5929 47.1439L28.7246 47.64ZM28.7246 26.976L27.8564 26.4799L27.8564 26.4799L28.7246 26.976ZM35.8526 19.848L36.3488 20.7162L36.3488 20.7162L35.8526 19.848ZM56.3726 19.848L55.8705 20.7128L55.8765 20.7162L56.3726 19.848ZM63.5006 26.976L64.3689 26.4799L64.3689 26.4799L63.5006 26.976ZM66.1646 37.344L67.1647 37.344L67.1646 37.3317L66.1646 37.344ZM63.5006 47.64L62.6383 47.1335L62.6324 47.1439L63.5006 47.64ZM56.3726 54.768L55.8765 53.8997L55.8705 53.9032L56.3726 54.768ZM53.6366 50.376L53.1304 49.5136L53.1304 49.5136L53.6366 50.376ZM58.8206 45.048L59.6957 45.5321L59.6957 45.5321L58.8206 45.048ZM58.8206 29.64L57.9413 30.1163L57.9456 30.1241L58.8206 29.64ZM53.6366 24.24L53.1304 25.1024L53.1304 25.1024L53.6366 24.24ZM38.6606 24.24L39.1668 25.1024L39.1668 25.1024L38.6606 24.24ZM33.4046 29.64L32.533 29.1497L32.5296 29.1559L33.4046 29.64ZM33.4046 45.048L32.5296 45.5321L32.5335 45.5391L32.5375 45.5461L33.4046 45.048ZM38.6606 50.376L39.1668 49.5136L39.1668 49.5136L38.6606 50.376ZM46.1486 56.36C42.4644 56.36 39.2065 55.5328 36.3488 53.8998L35.3565 55.6362C38.5467 57.4592 42.1529 58.36 46.1486 58.36V56.36ZM36.3488 53.8998C33.4798 52.2603 31.2323 50.0128 29.5929 47.1439L27.8564 48.1361C29.673 51.3152 32.1775 53.8197 35.3565 55.6362L36.3488 53.8998ZM29.5929 47.1439C27.9599 44.2861 27.1326 41.0283 27.1326 37.344H25.1326C25.1326 41.3397 26.0334 44.9459 27.8564 48.1361L29.5929 47.1439ZM27.1326 37.344C27.1326 33.6093 27.9609 30.328 29.5929 27.4721L27.8564 26.4799C26.0323 29.672 25.1326 33.3027 25.1326 37.344H27.1326ZM29.5929 27.4721C31.2323 24.6032 33.4798 22.3557 36.3488 20.7162L35.3565 18.9798C32.1775 20.7963 29.673 23.3008 27.8564 26.4799L29.5929 27.4721ZM36.3488 20.7162C39.2065 19.0832 42.4644 18.256 46.1486 18.256V16.256C42.1529 16.256 38.5467 17.1568 35.3565 18.9798L36.3488 20.7162ZM46.1486 18.256C49.8332 18.256 53.0641 19.0833 55.8705 20.7128L56.8748 18.9832C53.7291 17.1567 50.1441 16.256 46.1486 16.256V18.256ZM55.8765 20.7162C58.7455 22.3557 60.993 24.6032 62.6324 27.4721L64.3689 26.4799C62.5523 23.3008 60.0478 20.7963 56.8688 18.9798L55.8765 20.7162ZM62.6324 27.4721C64.2667 30.3321 65.1186 33.618 65.1647 37.3563L67.1646 37.3317C67.1147 33.294 66.1906 29.6679 64.3689 26.4799L62.6324 27.4721ZM65.1646 37.344C65.1646 41.0234 64.3157 44.2775 62.6383 47.1336L64.3629 48.1464C66.2375 44.9545 67.1646 41.3446 67.1646 37.344H65.1646ZM62.6324 47.1439C60.993 50.0128 58.7455 52.2603 55.8765 53.8998L56.8688 55.6362C60.0478 53.8197 62.5523 51.3152 64.3689 48.1361L62.6324 47.1439ZM55.8705 53.9032C53.0641 55.5327 49.8332 56.36 46.1486 56.36V58.36C50.1441 58.36 53.7291 57.4593 56.8748 55.6328L55.8705 53.9032ZM46.1486 53.32C49.0945 53.32 51.7681 52.6323 54.1428 51.2384L53.1304 49.5136C51.0892 50.7117 48.7707 51.32 46.1486 51.32V53.32ZM54.1428 51.2384C56.5066 49.851 58.3615 47.9438 59.6957 45.5321L57.9456 44.5639C56.7838 46.6642 55.1826 48.309 53.1304 49.5136L54.1428 51.2384ZM59.6957 45.5321C61.0349 43.1112 61.6926 40.3731 61.6926 37.344H59.6926C59.6926 40.0749 59.1024 42.4728 57.9456 44.5639L59.6957 45.5321ZM61.6926 37.344C61.6926 34.3149 61.0349 31.5768 59.6957 29.1559L57.9456 30.1241C59.1024 32.2152 59.6926 34.6131 59.6926 37.344H61.6926ZM59.6999 29.1637C58.3672 26.7034 56.5119 24.7681 54.1428 23.3776L53.1304 25.1024C55.1774 26.3039 56.778 27.9686 57.9413 30.1163L59.6999 29.1637ZM54.1428 23.3776C51.7681 21.9837 49.0945 21.296 46.1486 21.296V23.296C48.7707 23.296 51.0892 23.9043 53.1304 25.1024L54.1428 23.3776ZM46.1486 21.296C43.2027 21.296 40.5292 21.9837 38.1544 23.3776L39.1668 25.1024C41.2081 23.9043 43.5265 23.296 46.1486 23.296V21.296ZM38.1544 23.3776C35.7888 24.7661 33.9128 26.6968 32.533 29.1497L34.2762 30.1303C35.4884 27.9752 37.1165 26.3059 39.1668 25.1024L38.1544 23.3776ZM32.5296 29.1559C31.1904 31.5768 30.5326 34.3149 30.5326 37.344H32.5326C32.5326 34.6131 33.1229 32.2152 34.2797 30.1241L32.5296 29.1559ZM30.5326 37.344C30.5326 40.3731 31.1904 43.1112 32.5296 45.5321L34.2797 44.5639C33.1229 42.4728 32.5326 40.0749 32.5326 37.344H30.5326ZM32.5375 45.5461C33.9186 47.9503 35.794 49.8529 38.1544 51.2384L39.1668 49.5136C37.1113 48.3071 35.4826 46.6577 34.2717 44.5499L32.5375 45.5461ZM38.1544 51.2384C40.5292 52.6323 43.2027 53.32 46.1486 53.32V51.32C43.5265 51.32 41.2081 50.7117 39.1668 49.5136L38.1544 51.2384ZM87.9632 54.768L87.4446 55.623L87.4528 55.628L87.461 55.6328L87.9632 54.768ZM80.9792 47.568L80.105 48.0537L80.1109 48.0641L80.9792 47.568ZM80.9072 27.048L81.7872 27.5229L81.7872 27.5229L80.9072 27.048ZM87.6032 19.92L88.1241 20.7737L88.1345 20.7672L87.6032 19.92ZM105.459 18.984L105.033 19.8888L105.04 19.892L105.459 18.984ZM112.011 24.168L111.235 24.7986L111.254 24.8217L111.274 24.8437L112.011 24.168ZM112.587 26.04L113.562 26.2649L113.563 26.2572L113.565 26.2495L112.587 26.04ZM111.363 27.696L110.782 26.8822L110.775 26.8873L111.363 27.696ZM109.563 28.128L109.338 29.1024L109.38 29.1119L109.422 29.1179L109.563 28.128ZM107.907 27.048L108.675 26.4078L108.667 26.3977L108.658 26.3879L107.907 27.048ZM90.2672 24.24L89.7354 23.3931L89.7264 23.3988L90.2672 24.24ZM85.5152 29.568L84.6246 29.1132L84.6207 29.1208L84.617 29.1284L85.5152 29.568ZM85.6592 45.048L86.5421 44.5784L86.5421 44.5784L85.6592 45.048ZM90.6992 50.376L90.1847 51.2335L90.1847 51.2335L90.6992 50.376ZM103.227 51.6L103.525 52.5545L103.534 52.5517L103.543 52.5487L103.227 51.6ZM107.403 49.224L106.763 48.4558L106.753 48.4644L106.743 48.4733L107.403 49.224ZM109.203 48.432L109.28 49.4291L109.28 49.4291L109.203 48.432ZM110.931 49.008L111.607 48.2708L111.586 48.2518L111.564 48.234L110.931 49.008ZM111.867 50.808L110.87 50.8792L110.872 50.9145L110.877 50.9494L111.867 50.808ZM111.219 52.536L110.547 51.7961L110.543 51.7993L111.219 52.536ZM98.1152 56.36C94.4811 56.36 91.2736 55.5338 88.4653 53.9032L87.461 55.6328C90.6048 57.4582 94.1653 58.36 98.1152 58.36V56.36ZM88.4818 53.913C85.7015 52.2266 83.4927 49.9511 81.8474 47.0719L80.1109 48.0641C81.9216 51.2329 84.3689 53.7574 87.4446 55.623L88.4818 53.913ZM81.8533 47.0824C80.2636 44.2209 79.4592 40.9828 79.4592 37.344H77.4592C77.4592 41.2892 78.3347 44.8671 80.105 48.0536L81.8533 47.0824ZM79.4592 37.344C79.4592 33.65 80.2429 30.3845 81.7872 27.5229L80.0272 26.5731C78.3075 29.7595 77.4592 33.358 77.4592 37.344H79.4592ZM81.7872 27.5229C83.3383 24.6489 85.4487 22.406 88.124 20.7736L87.0823 19.0664C84.0936 20.89 81.7401 23.3991 80.0272 26.5731L81.7872 27.5229ZM88.1345 20.7672C90.7907 19.1014 93.8666 18.256 97.3952 18.256V16.256C93.5318 16.256 90.0797 17.1866 87.0719 19.0728L88.1345 20.7672ZM97.3952 18.256C100.188 18.256 102.729 18.8045 105.033 19.8888L105.885 18.0792C103.293 16.8595 100.458 16.256 97.3952 16.256V18.256ZM105.04 19.892C107.387 20.975 109.452 22.6034 111.235 24.7986L112.787 23.5374C110.827 21.1246 108.524 19.297 105.878 18.076L105.04 19.892ZM111.274 24.8437C111.618 25.2188 111.675 25.5221 111.609 25.8305L113.565 26.2495C113.787 25.2139 113.461 24.2692 112.748 23.4923L111.274 24.8437ZM111.613 25.8151C111.538 26.1392 111.314 26.5019 110.782 26.8823L111.944 28.5097C112.756 27.9301 113.348 27.1888 113.562 26.2649L111.613 25.8151ZM110.775 26.8873C110.466 27.1116 110.13 27.1989 109.705 27.138L109.422 29.1179C110.34 29.2491 111.204 29.0484 111.951 28.5047L110.775 26.8873ZM109.788 27.1536C109.412 27.0667 109.04 26.8458 108.675 26.4078L107.139 27.6882C107.734 28.4022 108.467 28.9013 109.338 29.1024L109.788 27.1536ZM108.658 26.3879C105.684 23.0035 101.906 21.296 97.3952 21.296V23.296C101.332 23.296 104.562 24.7565 107.156 27.7081L108.658 26.3879ZM97.3952 21.296C94.5391 21.296 91.9749 21.9869 89.7354 23.3931L90.799 25.0869C92.6875 23.9011 94.8753 23.296 97.3952 23.296V21.296ZM89.7264 23.3988C87.5531 24.7959 85.8522 26.7091 84.6246 29.1132L86.4058 30.0228C87.4821 27.9149 88.9492 26.2761 90.8079 25.0812L89.7264 23.3988ZM84.617 29.1284C83.4357 31.5422 82.8592 34.2888 82.8592 37.344H84.8592C84.8592 34.5432 85.3866 32.1057 86.4134 30.0076L84.617 29.1284ZM82.8592 37.344C82.8592 40.3667 83.4901 43.0995 84.7763 45.5176L86.5421 44.5784C85.4283 42.4845 84.8592 40.0813 84.8592 37.344H82.8592ZM84.7763 45.5176C86.0603 47.9315 87.8666 49.8426 90.1847 51.2335L91.2137 49.5185C89.2118 48.3174 87.6581 46.6765 86.5421 44.5784L84.7763 45.5176ZM90.1847 51.2335C92.5161 52.6323 95.1696 53.32 98.1152 53.32V51.32C95.4928 51.32 93.2023 50.7117 91.2137 49.5185L90.1847 51.2335ZM98.1152 53.32C100.072 53.32 101.879 53.0691 103.525 52.5545L102.929 50.6455C101.504 51.0909 99.9022 51.32 98.1152 51.32V53.32ZM103.543 52.5487C105.249 51.9803 106.759 51.123 108.064 49.9747L106.743 48.4733C105.647 49.437 104.374 50.1637 102.911 50.6513L103.543 52.5487ZM108.043 49.9922C108.492 49.6182 108.901 49.4582 109.28 49.4291L109.126 47.4349C108.257 47.5018 107.466 47.8698 106.763 48.4558L108.043 49.9922ZM109.28 49.4291C109.623 49.4026 109.949 49.4968 110.298 49.782L111.564 48.234C110.857 47.6552 110.031 47.3654 109.126 47.4349L109.28 49.4291ZM110.255 49.7452C110.675 50.1301 110.843 50.5028 110.87 50.8792L112.865 50.7368C112.796 49.7692 112.339 48.9419 111.607 48.2708L110.255 49.7452ZM110.877 50.9494C110.924 51.2737 110.844 51.5255 110.547 51.7961L111.892 53.2759C112.65 52.5865 113.003 51.6863 112.857 50.6666L110.877 50.9494ZM110.543 51.7993C107.243 54.8284 103.124 56.36 98.1152 56.36V58.36C103.57 58.36 108.188 56.6756 111.895 53.2727L110.543 51.7993ZM134.6 54.768L135.096 53.8998L135.096 53.8998L134.6 54.768ZM127.472 47.64L128.34 47.1439L128.34 47.1439L127.472 47.64ZM127.472 26.976L126.603 26.4799L126.603 26.4799L127.472 26.976ZM134.6 19.848L135.096 20.7162L135.096 20.7162L134.6 19.848ZM155.12 19.848L154.617 20.7128L154.623 20.7162L155.12 19.848ZM162.248 26.976L163.116 26.4799L163.116 26.4799L162.248 26.976ZM164.912 37.344L165.912 37.344L165.911 37.3317L164.912 37.344ZM162.248 47.64L161.385 47.1335L161.379 47.1439L162.248 47.64ZM155.12 54.768L154.623 53.8997L154.617 53.9032L155.12 54.768ZM152.384 50.376L151.877 49.5136L151.877 49.5136L152.384 50.376ZM157.568 45.048L158.443 45.5321L158.443 45.5321L157.568 45.048ZM157.568 29.64L156.688 30.1163L156.692 30.1241L157.568 29.64ZM152.384 24.24L151.877 25.1024L151.877 25.1024L152.384 24.24ZM137.408 24.24L137.914 25.1024L137.914 25.1024L137.408 24.24ZM132.152 29.64L131.28 29.1497L131.276 29.1559L132.152 29.64ZM132.152 45.048L131.276 45.5321L131.28 45.5391L131.284 45.5461L132.152 45.048ZM137.408 50.376L137.914 49.5136L137.914 49.5136L137.408 50.376ZM144.896 56.36C141.211 56.36 137.953 55.5328 135.096 53.8998L134.103 55.6362C137.294 57.4592 140.9 58.36 144.896 58.36V56.36ZM135.096 53.8998C132.227 52.2603 129.979 50.0128 128.34 47.1439L126.603 48.1361C128.42 51.3152 130.924 53.8197 134.103 55.6362L135.096 53.8998ZM128.34 47.1439C126.707 44.2861 125.88 41.0283 125.88 37.344H123.88C123.88 41.3397 124.78 44.9459 126.603 48.1361L128.34 47.1439ZM125.88 37.344C125.88 33.6093 126.708 30.328 128.34 27.4721L126.603 26.4799C124.779 29.672 123.88 33.3027 123.88 37.344H125.88ZM128.34 27.4721C129.979 24.6032 132.227 22.3557 135.096 20.7162L134.103 18.9798C130.924 20.7963 128.42 23.3008 126.603 26.4799L128.34 27.4721ZM135.096 20.7162C137.953 19.0832 141.211 18.256 144.896 18.256V16.256C140.9 16.256 137.294 17.1568 134.103 18.9798L135.096 20.7162ZM144.896 18.256C148.58 18.256 151.811 19.0833 154.617 20.7128L155.622 18.9832C152.476 17.1567 148.891 16.256 144.896 16.256V18.256ZM154.623 20.7162C157.492 22.3557 159.74 24.6032 161.379 27.4721L163.116 26.4799C161.299 23.3008 158.795 20.7963 155.616 18.9798L154.623 20.7162ZM161.379 27.4721C163.014 30.3321 163.865 33.618 163.912 37.3563L165.911 37.3317C165.862 33.294 164.937 29.6679 163.116 26.4799L161.379 27.4721ZM163.912 37.344C163.912 41.0234 163.063 44.2775 161.385 47.1336L163.11 48.1464C164.984 44.9545 165.912 41.3446 165.912 37.344H163.912ZM161.379 47.1439C159.74 50.0128 157.492 52.2603 154.623 53.8998L155.616 55.6362C158.795 53.8197 161.299 51.3152 163.116 48.1361L161.379 47.1439ZM154.617 53.9032C151.811 55.5327 148.58 56.36 144.896 56.36V58.36C148.891 58.36 152.476 57.4593 155.622 55.6328L154.617 53.9032ZM144.896 53.32C147.841 53.32 150.515 52.6323 152.89 51.2384L151.877 49.5136C149.836 50.7117 147.518 51.32 144.896 51.32V53.32ZM152.89 51.2384C155.253 49.851 157.108 47.9438 158.443 45.5321L156.692 44.5639C155.531 46.6642 153.93 48.309 151.877 49.5136L152.89 51.2384ZM158.443 45.5321C159.782 43.1112 160.44 40.3731 160.44 37.344H158.44C158.44 40.0749 157.849 42.4728 156.692 44.5639L158.443 45.5321ZM160.44 37.344C160.44 34.3149 159.782 31.5768 158.443 29.1559L156.692 30.1241C157.849 32.2152 158.44 34.6131 158.44 37.344H160.44ZM158.447 29.1637C157.114 26.7034 155.259 24.7681 152.89 23.3776L151.877 25.1024C153.924 26.3039 155.525 27.9686 156.688 30.1163L158.447 29.1637ZM152.89 23.3776C150.515 21.9837 147.841 21.296 144.896 21.296V23.296C147.518 23.296 149.836 23.9043 151.877 25.1024L152.89 23.3776ZM144.896 21.296C141.95 21.296 139.276 21.9837 136.901 23.3776L137.914 25.1024C139.955 23.9043 142.273 23.296 144.896 23.296V21.296ZM136.901 23.3776C134.536 24.7661 132.66 26.6968 131.28 29.1497L133.023 30.1303C134.235 27.9752 135.863 26.3059 137.914 25.1024L136.901 23.3776ZM131.276 29.1559C129.937 31.5768 129.28 34.3149 129.28 37.344H131.28C131.28 34.6131 131.87 32.2152 133.027 30.1241L131.276 29.1559ZM129.28 37.344C129.28 40.3731 129.937 43.1112 131.276 45.5321L133.027 44.5639C131.87 42.4728 131.28 40.0749 131.28 37.344H129.28ZM131.284 45.5461C132.666 47.9503 134.541 49.8529 136.901 51.2384L137.914 49.5136C135.858 48.3071 134.229 46.6577 133.019 44.5499L131.284 45.5461ZM136.901 51.2384C139.276 52.6323 141.95 53.32 144.896 53.32V51.32C142.273 51.32 139.955 50.7117 137.914 49.5136L136.901 51.2384ZM176.342 35.328L175.635 34.6209L175.635 34.6209L176.342 35.328ZM197.222 35.328L197.929 34.6209L197.929 34.6209L197.222 35.328ZM178.286 39.08C177.775 39.08 177.384 38.9155 177.049 38.5809L175.635 39.9951C176.356 40.7165 177.261 41.08 178.286 41.08V39.08ZM177.049 38.5809C176.715 38.2463 176.55 37.8552 176.55 37.344H174.55C174.55 38.3688 174.914 39.2737 175.635 39.9951L177.049 38.5809ZM176.55 37.344C176.55 36.7661 176.727 36.3572 177.049 36.0351L175.635 34.6209C174.901 35.3548 174.55 36.2899 174.55 37.344H176.55ZM177.049 36.0351C177.384 35.7005 177.775 35.536 178.286 35.536V33.536C177.261 33.536 176.356 33.8995 175.635 34.6209L177.049 36.0351ZM178.286 35.536H195.206V33.536H178.286V35.536ZM195.206 35.536C195.784 35.536 196.193 35.713 196.515 36.0351L197.929 34.6209C197.195 33.887 196.26 33.536 195.206 33.536V35.536ZM196.515 36.0351C196.837 36.3572 197.014 36.7661 197.014 37.344H199.014C199.014 36.2899 198.663 35.3548 197.929 34.6209L196.515 36.0351ZM197.014 37.344C197.014 37.8552 196.85 38.2463 196.515 38.5809L197.929 39.9951C198.651 39.2737 199.014 38.3688 199.014 37.344H197.014ZM196.515 38.5809C196.193 38.903 195.784 39.08 195.206 39.08V41.08C196.26 41.08 197.195 40.729 197.929 39.9951L196.515 38.5809ZM195.206 39.08H178.286V41.08H195.206V39.08ZM208.067 56.208L207.33 56.8837L207.359 56.9158L207.391 56.9452L208.067 56.208ZM245.867 1.56L245.16 2.2671L245.177 2.28393L245.194 2.29994L245.867 1.56ZM212.891 6.168V5.168H211.891V6.168H212.891ZM212.891 26.04H211.891V27.04H212.891V26.04ZM237.443 26.832L238.15 26.1249L238.15 26.1249L237.443 26.832ZM212.891 31.512V30.512H211.891V31.512H212.891ZM212.099 56.208L212.806 56.9151L212.822 56.8997L212.836 56.8837L212.099 56.208ZM210.083 56C209.57 56 209.138 55.833 208.743 55.4708L207.391 56.9452C208.148 57.639 209.06 58 210.083 58V56ZM208.804 55.5323C208.442 55.1371 208.275 54.705 208.275 54.192H206.275C206.275 55.215 206.636 56.1269 207.33 56.8837L208.804 55.5323ZM208.275 54.192V3.576H206.275V54.192H208.275ZM208.275 3.576C208.275 2.99812 208.452 2.58924 208.774 2.2671L207.36 0.85289C206.626 1.58675 206.275 2.52187 206.275 3.576H208.275ZM208.774 2.2671C209.096 1.94497 209.505 1.768 210.083 1.768V-0.232001C209.029 -0.232001 208.094 0.119029 207.36 0.85289L208.774 2.2671ZM210.083 1.768H243.851V-0.232001H210.083V1.768ZM243.851 1.768C244.429 1.768 244.838 1.94497 245.16 2.2671L246.574 0.85289C245.84 0.119029 244.905 -0.232001 243.851 -0.232001V1.768ZM245.194 2.29994C245.483 2.56235 245.659 2.92513 245.659 3.504H247.659C247.659 2.45087 247.307 1.51765 246.54 0.820056L245.194 2.29994ZM245.659 3.504C245.659 3.94799 245.508 4.32066 245.16 4.66889L246.574 6.08311C247.282 5.37534 247.659 4.5 247.659 3.504H245.659ZM245.16 4.66889C244.838 4.99103 244.429 5.168 243.851 5.168V7.168C244.905 7.168 245.84 6.81697 246.574 6.08311L245.16 4.66889ZM243.851 5.168H212.891V7.168H243.851V5.168ZM211.891 6.168V26.04H213.891V6.168H211.891ZM212.891 27.04H235.427V25.04H212.891V27.04ZM235.427 27.04C236.005 27.04 236.414 27.217 236.736 27.5391L238.15 26.1249C237.416 25.391 236.481 25.04 235.427 25.04V27.04ZM236.736 27.5391C237.071 27.8737 237.235 28.2648 237.235 28.776H239.235C239.235 27.7512 238.872 26.8463 238.15 26.1249L236.736 27.5391ZM237.235 28.776C237.235 29.2872 237.071 29.6783 236.736 30.0129L238.15 31.4271C238.872 30.7057 239.235 29.8008 239.235 28.776H237.235ZM236.736 30.0129C236.414 30.335 236.005 30.512 235.427 30.512V32.512C236.481 32.512 237.416 32.161 238.15 31.4271L236.736 30.0129ZM235.427 30.512H212.891V32.512H235.427V30.512ZM211.891 31.512V54.192H213.891V31.512H211.891ZM211.891 54.192C211.891 54.705 211.724 55.1371 211.362 55.5323L212.836 56.8837C213.53 56.1269 213.891 55.215 213.891 54.192H211.891ZM211.392 55.5009C211.07 55.823 210.661 56 210.083 56V58C211.137 58 212.072 57.649 212.806 56.9151L211.392 55.5009ZM261.491 56.28L260.751 56.9527L260.783 56.9879L260.818 57.0199L261.491 56.28ZM261.491 18.408L262.198 19.1151L262.198 19.1151L261.491 18.408ZM265.523 18.408L264.783 19.0807L264.815 19.1159L264.85 19.1479L265.523 18.408ZM265.523 56.28L264.816 55.5729L264.816 55.5729L265.523 56.28ZM260.771 8.976L261.478 8.26889L261.478 8.26889L260.771 8.976ZM260.771 3.36L261.43 4.11258L261.433 4.10983L260.771 3.36ZM266.243 3.36L265.559 4.08953L265.583 4.1115L265.607 4.13192L266.243 3.36ZM266.315 8.976L265.608 8.26889L265.608 8.26889L266.315 8.976ZM263.579 56C262.909 56 262.471 55.819 262.164 55.5401L260.818 57.0199C261.568 57.701 262.521 58 263.579 58V56ZM262.231 55.6073C261.952 55.3005 261.771 54.8624 261.771 54.192H259.771C259.771 55.2496 260.07 56.2035 260.751 56.9527L262.231 55.6073ZM261.771 54.192V20.424H259.771V54.192H261.771ZM261.771 20.424C261.771 19.7493 261.953 19.3599 262.198 19.1151L260.784 17.7009C260.069 18.4161 259.771 19.3707 259.771 20.424H261.771ZM262.198 19.1151C262.509 18.8043 262.935 18.616 263.579 18.616V16.616C262.495 16.616 261.529 16.9557 260.784 17.7009L262.198 19.1151ZM263.579 18.616C264.158 18.616 264.521 18.792 264.783 19.0807L266.263 17.7353C265.565 16.968 264.632 16.616 263.579 16.616V18.616ZM264.85 19.1479C265.127 19.3991 265.315 19.7774 265.315 20.424H267.315C267.315 19.3426 266.976 18.3769 266.196 17.6681L264.85 19.1479ZM265.315 20.424V54.192H267.315V20.424H265.315ZM265.315 54.192C265.315 54.8359 265.127 55.2621 264.816 55.5729L266.23 56.9871C266.975 56.2419 267.315 55.2761 267.315 54.192H265.315ZM264.816 55.5729C264.56 55.8284 264.187 56 263.579 56V58C264.603 58 265.526 57.6916 266.23 56.9871L264.816 55.5729ZM263.507 9.128C262.725 9.128 262.065 8.85534 261.478 8.26889L260.064 9.6831C261.014 10.6327 262.178 11.128 263.507 11.128V9.128ZM261.478 8.26889C260.901 7.69186 260.619 7.01168 260.619 6.168H258.619C258.619 7.53231 259.105 8.72413 260.064 9.6831L261.478 8.26889ZM260.619 6.168C260.619 5.20052 260.917 4.56077 261.43 4.11257L260.113 2.60742C259.089 3.50323 258.619 4.73548 258.619 6.168H260.619ZM261.433 4.10983C262.072 3.54564 262.775 3.28 263.579 3.28V1.28C262.271 1.28 261.102 1.73435 260.109 2.61016L261.433 4.10983ZM263.579 3.28C264.321 3.28 264.967 3.53479 265.559 4.08953L266.927 2.63046C265.983 1.7452 264.853 1.28 263.579 1.28V3.28ZM265.607 4.13192C266.16 4.58686 266.467 5.22139 266.467 6.168H268.467C268.467 4.71461 267.958 3.47713 266.879 2.58807L265.607 4.13192ZM266.467 6.168C266.467 7.01168 266.185 7.69186 265.608 8.26889L267.022 9.6831C267.981 8.72413 268.467 7.53231 268.467 6.168H266.467ZM265.608 8.26889C265.031 8.84592 264.351 9.128 263.507 9.128V11.128C264.871 11.128 266.063 10.6421 267.022 9.6831L265.608 8.26889Z" fill="black"/>
</svg>
