<svg width="271" height="62" viewBox="0 0 271 62" fill="none" xmlns="http://www.w3.org/2000/svg">
<g filter="url(#filter0_d_20_6)">
<path d="M50.96 37.232C50.96 40.5457 48.2737 43.232 44.96 43.232C41.6463 43.232 38.96 40.5457 38.96 37.232C38.96 33.9183 41.6463 31.232 44.96 31.232C48.2737 31.232 50.96 33.9183 50.96 37.232Z" fill="#F97F10"/>
<path d="M149.96 37.232C149.96 40.5457 147.274 43.232 143.96 43.232C140.646 43.232 137.96 40.5457 137.96 37.232C137.96 33.9183 140.646 31.232 143.96 31.232C147.274 31.232 149.96 33.9183 149.96 37.232Z" fill="black"/>
<path d="M13.936 56.232C12.016 56.232 10.288 55.704 8.752 54.648C7.264 53.592 6.088 52.128 5.224 50.256C4.408 48.384 4 46.224 4 43.776V2.736C4 1.92 4.24 1.272 4.72 0.791998C5.248 0.263999 5.92 0 6.736 0C7.552 0 8.2 0.263999 8.68 0.791998C9.208 1.272 9.472 1.92 9.472 2.736V43.776C9.472 45.84 9.88 47.52 10.696 48.816C11.56 50.112 12.64 50.76 13.936 50.76H15.736C16.456 50.76 17.032 51.024 17.464 51.552C17.896 52.032 18.112 52.68 18.112 53.496C18.112 54.312 17.8 54.984 17.176 55.512C16.6 55.992 15.832 56.232 14.872 56.232H13.936Z" fill="black"/>
<path d="M45.1086 56.592C41.2686 56.592 37.8366 55.728 34.8126 54C31.7886 52.272 29.4126 49.896 27.6846 46.872C25.9566 43.848 25.0926 40.416 25.0926 36.576C25.0926 32.688 25.9566 29.232 27.6846 26.208C29.4126 23.184 31.7886 20.808 34.8126 19.08C37.8366 17.352 41.2686 16.488 45.1086 16.488C48.9486 16.488 52.3566 17.352 55.3326 19.08C58.3566 20.808 60.7326 23.184 62.4606 26.208C64.1886 29.232 65.0766 32.688 65.1246 36.576C65.1246 40.416 64.2366 43.848 62.4606 46.872C60.7326 49.896 58.3566 52.272 55.3326 54C52.3566 55.728 48.9486 56.592 45.1086 56.592ZM45.1086 51.552C47.8926 51.552 50.3886 50.904 52.5966 49.608C54.8046 48.312 56.5326 46.536 57.7806 44.28C59.0286 42.024 59.6526 39.456 59.6526 36.576C59.6526 33.696 59.0286 31.128 57.7806 28.872C56.5326 26.568 54.8046 24.768 52.5966 23.472C50.3886 22.176 47.8926 21.528 45.1086 21.528C42.3246 21.528 39.8286 22.176 37.6206 23.472C35.4126 24.768 33.6606 26.568 32.3646 28.872C31.1166 31.128 30.4926 33.696 30.4926 36.576C30.4926 39.456 31.1166 42.024 32.3646 44.28C33.6606 46.536 35.4126 48.312 37.6206 49.608C39.8286 50.904 42.3246 51.552 45.1086 51.552Z" fill="black"/>
<path d="M97.0752 56.592C93.2832 56.592 89.8992 55.728 86.9232 54C83.9952 52.224 81.6672 49.824 79.9392 46.8C78.2592 43.776 77.4192 40.368 77.4192 36.576C77.4192 32.736 78.2352 29.304 79.8672 26.28C81.4992 23.256 83.7312 20.88 86.5632 19.152C89.3952 17.376 92.6592 16.488 96.3552 16.488C99.2832 16.488 101.971 17.064 104.419 18.216C106.915 19.368 109.099 21.096 110.971 23.4C111.499 23.976 111.691 24.6 111.547 25.272C111.403 25.896 110.995 26.448 110.323 26.928C109.795 27.312 109.195 27.456 108.523 27.36C107.899 27.216 107.347 26.856 106.867 26.28C104.083 23.112 100.579 21.528 96.3552 21.528C93.6672 21.528 91.2912 22.176 89.2272 23.472C87.2112 24.768 85.6272 26.544 84.4752 28.8C83.3712 31.056 82.8192 33.648 82.8192 36.576C82.8192 39.456 83.4192 42.024 84.6192 44.28C85.8192 46.536 87.4992 48.312 89.6592 49.608C91.8192 50.904 94.2912 51.552 97.0752 51.552C98.9472 51.552 100.651 51.312 102.187 50.832C103.771 50.304 105.163 49.512 106.363 48.456C106.939 47.976 107.539 47.712 108.163 47.664C108.787 47.616 109.363 47.808 109.891 48.24C110.467 48.768 110.779 49.368 110.827 50.04C110.923 50.712 110.707 51.288 110.179 51.768C106.675 54.984 102.307 56.592 97.0752 56.592Z" fill="black"/>
<path d="M143.855 56.592C140.016 56.592 136.584 55.728 133.56 54C130.536 52.272 128.16 49.896 126.432 46.872C124.704 43.848 123.84 40.416 123.84 36.576C123.84 32.688 124.704 29.232 126.432 26.208C128.16 23.184 130.536 20.808 133.56 19.08C136.584 17.352 140.016 16.488 143.855 16.488C147.695 16.488 151.104 17.352 154.079 19.08C157.104 20.808 159.48 23.184 161.208 26.208C162.936 29.232 163.824 32.688 163.872 36.576C163.872 40.416 162.984 43.848 161.208 46.872C159.48 49.896 157.104 52.272 154.079 54C151.104 55.728 147.695 56.592 143.855 56.592ZM143.855 51.552C146.639 51.552 149.135 50.904 151.344 49.608C153.552 48.312 155.28 46.536 156.528 44.28C157.776 42.024 158.4 39.456 158.4 36.576C158.4 33.696 157.776 31.128 156.528 28.872C155.28 26.568 153.552 24.768 151.344 23.472C149.135 22.176 146.639 21.528 143.855 21.528C141.072 21.528 138.576 22.176 136.368 23.472C134.16 24.768 132.408 26.568 131.112 28.872C129.864 31.128 129.24 33.696 129.24 36.576C129.24 39.456 129.864 42.024 131.112 44.28C132.408 46.536 134.16 48.312 136.368 49.608C138.576 50.904 141.072 51.552 143.855 51.552Z" fill="black"/>
<path d="M177.246 39.312C176.478 39.312 175.83 39.048 175.302 38.52C174.774 37.992 174.51 37.344 174.51 36.576C174.51 35.76 174.774 35.088 175.302 34.56C175.83 34.032 176.478 33.768 177.246 33.768H194.166C194.982 33.768 195.654 34.032 196.182 34.56C196.71 35.088 196.974 35.76 196.974 36.576C196.974 37.344 196.71 37.992 196.182 38.52C195.654 39.048 194.982 39.312 194.166 39.312H177.246Z" fill="black"/>
<path d="M209.043 56.232C208.275 56.232 207.603 55.968 207.027 55.44C206.499 54.864 206.235 54.192 206.235 53.424V2.808C206.235 1.992 206.499 1.32 207.027 0.791998C207.555 0.263999 208.227 0 209.043 0H242.811C243.627 0 244.299 0.263999 244.827 0.791998C245.355 1.272 245.619 1.92 245.619 2.736C245.619 3.456 245.355 4.08 244.827 4.608C244.299 5.136 243.627 5.4 242.811 5.4H211.851V25.272H234.387C235.203 25.272 235.875 25.536 236.403 26.064C236.931 26.592 237.195 27.24 237.195 28.008C237.195 28.776 236.931 29.424 236.403 29.952C235.875 30.48 235.203 30.744 234.387 30.744H211.851V53.424C211.851 54.192 211.587 54.864 211.059 55.44C210.531 55.968 209.859 56.232 209.043 56.232Z" fill="black"/>
<path d="M262.539 56.232C261.675 56.232 260.979 55.992 260.451 55.512C259.971 54.984 259.731 54.288 259.731 53.424V19.656C259.731 18.792 259.971 18.12 260.451 17.64C260.979 17.112 261.675 16.848 262.539 16.848C263.355 16.848 264.003 17.112 264.483 17.64C265.011 18.12 265.275 18.792 265.275 19.656V53.424C265.275 54.288 265.011 54.984 264.483 55.512C264.003 55.992 263.355 56.232 262.539 56.232ZM262.467 9.36C261.411 9.36 260.499 8.976 259.731 8.208C258.963 7.44 258.579 6.504 258.579 5.4C258.579 4.2 258.963 3.264 259.731 2.592C260.547 1.872 261.483 1.512 262.539 1.512C263.547 1.512 264.435 1.872 265.203 2.592C266.019 3.264 266.427 4.2 266.427 5.4C266.427 6.504 266.043 7.44 265.275 8.208C264.507 8.976 263.571 9.36 262.467 9.36Z" fill="black"/>
<path d="M50.96 37.232C50.96 40.5457 48.2737 43.232 44.96 43.232C41.6463 43.232 38.96 40.5457 38.96 37.232C38.96 33.9183 41.6463 31.232 44.96 31.232C48.2737 31.232 50.96 33.9183 50.96 37.232Z" fill="#F97F10"/>
<path d="M45.1086 56.592C41.2686 56.592 37.8366 55.728 34.8126 54C31.7886 52.272 29.4126 49.896 27.6846 46.872C25.9566 43.848 25.0926 40.416 25.0926 36.576C25.0926 32.688 25.9566 29.232 27.6846 26.208C29.4126 23.184 31.7886 20.808 34.8126 19.08C37.8366 17.352 41.2686 16.488 45.1086 16.488C48.9486 16.488 52.3566 17.352 55.3326 19.08C58.3566 20.808 60.7326 23.184 62.4606 26.208C64.1886 29.232 65.0766 32.688 65.1246 36.576C65.1246 40.416 64.2366 43.848 62.4606 46.872C60.7326 49.896 58.3566 52.272 55.3326 54C52.3566 55.728 48.9486 56.592 45.1086 56.592ZM45.1086 51.552C47.8926 51.552 50.3886 50.904 52.5966 49.608C54.8046 48.312 56.5326 46.536 57.7806 44.28C59.0286 42.024 59.6526 39.456 59.6526 36.576C59.6526 33.696 59.0286 31.128 57.7806 28.872C56.5326 26.568 54.8046 24.768 52.5966 23.472C50.3886 22.176 47.8926 21.528 45.1086 21.528C42.3246 21.528 39.8286 22.176 37.6206 23.472C35.4126 24.768 33.6606 26.568 32.3646 28.872C31.1166 31.128 30.4926 33.696 30.4926 36.576C30.4926 39.456 31.1166 42.024 32.3646 44.28C33.6606 46.536 35.4126 48.312 37.6206 49.608C39.8286 50.904 42.3246 51.552 45.1086 51.552Z" fill="black"/>
</g>
<defs>
<filter id="filter0_d_20_6" x="0" y="0" width="270.427" height="64.592" filterUnits="userSpaceOnUse" color-interpolation-filters="sRGB">
<feFlood flood-opacity="0" result="BackgroundImageFix"/>
<feColorMatrix in="SourceAlpha" type="matrix" values="0 0 0 0 0 0 0 0 0 0 0 0 0 0 0 0 0 0 127 0" result="hardAlpha"/>
<feOffset dy="4"/>
<feGaussianBlur stdDeviation="2"/>
<feComposite in2="hardAlpha" operator="out"/>
<feColorMatrix type="matrix" values="0 0 0 0 0 0 0 0 0 0 0 0 0 0 0 0 0 0 0.25 0"/>
<feBlend mode="normal" in2="BackgroundImageFix" result="effect1_dropShadow_20_6"/>
<feBlend mode="normal" in="SourceGraphic" in2="effect1_dropShadow_20_6" result="shape"/>
</filter>
</defs>
</svg>
